<mxfile host="app.diagrams.net" modified="2024-05-18T14:06:17.053Z" agent="Mozilla/5.0 (Windows NT 10.0; Win64; x64) AppleWebKit/537.36 (KHTML, like Gecko) Chrome/125.0.0.0 Safari/537.36" version="24.4.4" etag="SQAymzp90XbvEAv4Z1fs" type="github">
  <diagram name="Page-1" id="--w9tEpFzYPma0SCiNDJ">
    <mxGraphModel>
      <root>
        <mxCell id="0" />
        <mxCell id="1" parent="0" />
      </root>
    </mxGraphModel>
  </diagram>
</mxfile>
